<svg xmlns="http://www.w3.org/2000/svg" style="display:none">
  <symbol id="icon-user" viewBox="0 0 24 24">
    <path d="M12 12c2.21 0 4-1.79 4-4s-1.79-4-4-4-4 1.79-4 4 1.79 4 4 4zm0 2c-2.67 0-8 1.34-8 4v2h16v-2c0-2.66-5.33-4-8-4z"/>
  </symbol>
  <symbol id="icon-walk" viewBox="0 0 24 24">
    <!-- Simplified walking figure -->
    <path d="M4 12h4v3h-4v-3zm12 0h4v3h-4v-3"/>
  </symbol>
  <symbol id="icon-calendar" viewBox="0 0 24 24">
    <path d="M19 4h-1V2h-2v2H8V2H6v2H5c-1.1 0-2 .9-2 2v14c0 1.1.9 2 2 2h14c1.1 0 2-.9 2-2V6h-1v1"/>
  </symbol>
  <symbol id="icon-flask" viewBox="0 0 24 24">
    <path d="M9 2h6v2H9V2zm2 2h5v9H7V4zm-2 0h3v3H5V4zm0 4h3v5H3V8zm6 0h3v3h-3v3z"/>
  </symbol>
  <symbol id="icon-chart" viewBox="0 0 24 24">
    <path d="M3 17.5V19h18v-1.5H3zM6 16V8h3v8H6zm4 0V5h3v11h-3zm4 0V3h3v13h-3z"/>
  </symbol>
  <symbol id="icon-edit" viewBox="0 0 24 24">
    <path d="M3 17.25V21h3.75L18.81 12.81l-3.75-3.75L3 17.25zm19.06-10.61c.39-.39.39-1.03 0-1.41l-2.34-2.34c-.39-.39-1.03-.39-1.41 0L14.59 8.54l3.75 3.75L21.06 10.61z"/>
  </symbol>
  <!-- Additional icons -->
  <symbol id="icon-edit-copy" viewBox="0 0 24 24">
    <!-- placeholder -->
  </symbol>
</svg>